<?xml version="1.0" encoding="utf-8"?>
<!-- Generator: Adobe Illustrator 16.0.0, SVG Export Plug-In . SVG Version: 6.00 Build 0)  -->
<!DOCTYPE svg PUBLIC "-//W3C//DTD SVG 1.1//EN" "http://www.w3.org/Graphics/SVG/1.1/DTD/svg11.dtd">
<svg version="1.1" id="Layer_1" xmlns="http://www.w3.org/2000/svg" xmlns:xlink="http://www.w3.org/1999/xlink" x="0px" y="0px"
	 width="130px" height="130px" viewBox="0 0 130 130" enable-background="new 0 0 130 130" xml:space="preserve">
<g>
	<g>
		<g>
			<polygon fill="#910C4E" points="65.001,48.697 92.757,32.671 92.757,78.296 65.001,94.32 			"/>
			<polygon fill="#E83D5E" points="37.243,32.671 65.001,48.697 65.001,94.32 37.243,78.296 			"/>
			<polygon fill="#FF7BA1" points="37.243,32.671 65.001,16.646 92.757,32.671 65.001,48.697 			"/>
			<polyline fill="#FF4D78" points="92.757,32.671 65.001,48.697 37.243,32.671 			"/>
		</g>
		<g>
			<g>
				<polygon fill="#070606" points="70.54,77.339 70.54,81.309 73.998,79.313 73.974,75.356 				"/>
				<polygon fill="#070606" points="85.333,68.771 85.333,72.742 88.79,70.746 88.765,66.79 				"/>
			</g>
			<g>
				<polyline fill="#333232" points="70.54,81.309 73.998,79.313 73.974,75.356 				"/>
				<polyline fill="#333232" points="85.333,72.742 88.79,70.746 88.765,66.79 				"/>
			</g>
		</g>
	</g>
	<g>
		<g>
			<polygon fill="#FF557E" points="65.001,37.048 96.219,19.023 96.219,70.338 65.001,88.36 			"/>
			<polyline fill="#E83D5E" points="65.001,88.36 65.001,37.048 96.219,19.023 			"/>
			<polygon fill="#AD2566" points="33.781,19.023 65.001,37.048 65.001,88.36 33.781,70.338 			"/>
			<polyline fill="#910C4E" points="33.781,19.023 65.001,37.048 65.001,88.36 			"/>
			<polygon fill="#FF7BA1" points="33.781,19.023 65.001,1 96.219,19.023 65.001,37.048 			"/>
			<polyline fill="#FF4D78" points="96.219,19.023 65.001,37.048 33.781,19.023 			"/>
		</g>
		<g>
			<g>
				<polygon fill="#070606" points="71.231,69.261 71.231,73.726 75.12,71.481 75.093,67.032 				"/>
				<polygon fill="#070606" points="87.867,59.624 87.867,64.091 91.757,61.847 91.729,57.396 				"/>
			</g>
			<g>
				<polyline fill="#333232" points="71.231,73.726 75.12,71.481 75.093,67.032 				"/>
				<polyline fill="#333232" points="87.867,64.091 91.757,61.847 91.729,57.396 				"/>
			</g>
		</g>
	</g>
	<g>
		<g>
			<g>
				<path fill="#CC2166" d="M24.715,102.417c-0.43,0-0.849-0.223-1.079-0.623c-0.345-0.596-0.141-1.358,0.456-1.701l5.131-2.965
					v-5.926l0.624-1.079l5.755-3.322l1.274,0.017l3.857,2.367v-4.628c0-0.688,0.559-1.247,1.247-1.247
					c0.688,0,1.246,0.559,1.246,1.247v6.853l-1.897,1.062l-5.125-3.143l-4.489,2.593v5.927l-0.622,1.078l-5.755,3.323
					C25.142,102.363,24.927,102.417,24.715,102.417z"/>
			</g>
			<g>
				<path fill="#CC2166" d="M33.348,124.016c-0.688,0-1.246-0.558-1.246-1.246v-6.646l0.623-1.079l5.132-2.964v-9.248l0.623-1.08
					l8.011-4.625V87.88c0-0.688,0.558-1.246,1.246-1.246c0.688,0,1.246,0.558,1.246,1.246v9.968l-0.624,1.079l-8.01,4.625v9.249
					l-0.623,1.079l-5.132,2.963v5.927C34.594,123.458,34.036,124.016,33.348,124.016z"/>
			</g>
			<g>
				<path fill="#FF5F85" d="M53.491,129c-0.688,0-1.247-0.558-1.247-1.247v-9.248l-5.131-2.964l-0.623-1.079v-9.969l0.623-1.078
					l5.131-2.964v-9.249c0-0.688,0.559-1.246,1.247-1.246c0.688,0,1.246,0.558,1.246,1.246v9.969l-0.624,1.079l-5.131,2.964v8.529
					l5.131,2.963l0.624,1.079v9.968C54.737,128.442,54.179,129,53.491,129z"/>
			</g>
			<g>
				<path fill="#FF5F85" d="M21.837,114.048c-0.431,0-0.849-0.225-1.079-0.624c-0.345-0.596-0.141-1.358,0.455-1.702l8.01-4.625
					v-2.396l0.568-1.044l2.878-1.87c0.576-0.374,1.349-0.212,1.724,0.366c0.374,0.576,0.211,1.349-0.366,1.724l-2.312,1.501v2.438
					l-0.622,1.079l-8.633,4.984C22.263,113.993,22.049,114.048,21.837,114.048z"/>
			</g>
			<g>
				<path fill="#CC2166" d="M59.246,125.677c-0.688,0-1.246-0.558-1.246-1.246v-6.646l0.622-1.079l5.134-2.963v-5.207l-5.134-2.963
					L58,104.493v-9.76c0-0.689,0.558-1.246,1.246-1.246c0.688,0,1.246,0.557,1.246,1.246v9.041l5.133,2.963l0.622,1.079v6.646
					l-0.622,1.08l-5.133,2.963v5.926C60.492,125.119,59.934,125.677,59.246,125.677z"/>
			</g>
			<g>
				<path fill="#CC2166" d="M56.368,113.648c-0.688,0-1.246-0.558-1.246-1.246v-6.247c0-0.689,0.558-1.246,1.246-1.246
					c0.688,0,1.246,0.557,1.246,1.246v6.247C57.614,113.091,57.056,113.648,56.368,113.648z"/>
			</g>
			<g>
				<path fill="#CC2166" d="M36.225,99.095c-0.43,0-0.849-0.224-1.079-0.623c-0.345-0.596-0.141-1.358,0.456-1.703l5.756-3.322
					c0.594-0.345,1.357-0.141,1.702,0.455c0.343,0.597,0.141,1.359-0.457,1.703l-5.755,3.322
					C36.651,99.04,36.437,99.095,36.225,99.095z"/>
			</g>
		</g>
		<g>
			<g>
				<path fill="#CC2166" d="M105.285,102.417c0.429,0,0.849-0.223,1.079-0.623c0.345-0.596,0.141-1.358-0.456-1.701l-5.132-2.965
					v-5.926l-0.623-1.079l-5.755-3.322l-1.274,0.017l-3.858,2.367v-4.628c0-0.688-0.558-1.247-1.246-1.247
					c-0.688,0-1.246,0.559-1.246,1.247v6.853l1.897,1.062l5.124-3.143l4.49,2.593v5.927l0.622,1.078l5.755,3.323
					C104.858,102.363,105.073,102.417,105.285,102.417z"/>
			</g>
			<g>
				<path fill="#CC2166" d="M96.652,124.016c0.688,0,1.246-0.558,1.246-1.246v-6.646l-0.623-1.079l-5.132-2.964v-9.248l-0.623-1.08
					l-8.011-4.625V87.88c0-0.688-0.558-1.246-1.246-1.246c-0.688,0-1.246,0.558-1.246,1.246v9.968l0.624,1.079l8.01,4.625v9.249
					l0.623,1.079l5.131,2.963v5.927C95.405,123.458,95.964,124.016,96.652,124.016z"/>
			</g>
			<g>
				<path fill="#FF5F85" d="M76.509,129c0.688,0,1.246-0.558,1.246-1.247v-9.248l5.132-2.964l0.623-1.079v-9.969l-0.623-1.078
					l-5.132-2.964v-9.249c0-0.688-0.558-1.246-1.246-1.246c-0.688,0-1.246,0.558-1.246,1.246v9.969l0.624,1.079l5.131,2.964v8.529
					l-5.131,2.963l-0.624,1.079v9.968C75.263,128.442,75.821,129,76.509,129z"/>
			</g>
			<g>
				<path fill="#FF5F85" d="M108.163,114.048c0.431,0,0.849-0.225,1.079-0.624c0.345-0.596,0.141-1.358-0.456-1.702l-8.01-4.625
					v-2.396l-0.567-1.044l-2.878-1.87c-0.577-0.374-1.349-0.212-1.724,0.366c-0.375,0.576-0.212,1.349,0.366,1.724l2.312,1.501
					v2.438l0.622,1.079l8.633,4.984C107.737,113.993,107.951,114.048,108.163,114.048z"/>
			</g>
			<g>
				<path fill="#CC2166" d="M70.754,125.677c0.688,0,1.246-0.558,1.246-1.246v-6.646l-0.623-1.079l-5.133-2.963v-5.207l5.133-2.963
					l0.623-1.08v-9.76c0-0.689-0.558-1.246-1.246-1.246c-0.688,0-1.246,0.557-1.246,1.246v9.041l-5.133,2.963l-0.622,1.079v6.646
					l0.622,1.08l5.133,2.963v5.926C69.508,125.119,70.066,125.677,70.754,125.677z"/>
			</g>
			<g>
				<path fill="#CC2166" d="M73.632,113.648c0.688,0,1.245-0.558,1.245-1.246v-6.247c0-0.689-0.557-1.246-1.245-1.246
					c-0.688,0-1.246,0.557-1.246,1.246v6.247C72.386,113.091,72.944,113.648,73.632,113.648z"/>
			</g>
			<g>
				<path fill="#CC2166" d="M93.775,99.095c0.429,0,0.849-0.224,1.079-0.623c0.345-0.596,0.141-1.358-0.456-1.703l-5.756-3.322
					c-0.595-0.345-1.357-0.141-1.702,0.455c-0.344,0.597-0.141,1.359,0.457,1.703l5.755,3.322
					C93.349,99.04,93.563,99.095,93.775,99.095z"/>
			</g>
		</g>
	</g>
	<g>
		<path fill="#FF5F85" d="M65,103.464c0.49,0,0.887-0.396,0.887-0.887v-4.451c0-0.49-0.396-0.887-0.887-0.887
			s-0.887,0.396-0.887,0.887v4.451C64.113,103.067,64.51,103.464,65,103.464z"/>
	</g>
</g>
</svg>
